<svg width="128" height="128" viewBox="0 0 128 128" fill="none" xmlns="http://www.w3.org/2000/svg">
<g clip-path="url(#clip0_65_180)">
<path d="M64 0C51.342 0 38.9683 3.75353 28.4435 10.7859C17.9188 17.8184 9.71575 27.8138 4.87174 39.5083C0.02773 51.2027 -1.23968 64.071 1.22977 76.4858C3.69922 88.9006 9.79463 100.304 18.7452 109.255C27.6958 118.205 39.0995 124.301 51.5143 126.77C63.929 129.24 76.7973 127.972 88.4918 123.128C100.186 118.284 110.182 110.081 117.214 99.5565C124.246 89.0317 128 76.658 128 64C127.982 47.0318 121.233 30.7639 109.234 18.7656C97.2361 6.76732 80.9682 0.0185286 64 0ZM64 122C52.5287 122 41.315 118.598 31.777 112.225C22.2389 105.852 14.8049 96.7938 10.415 86.1956C6.02513 75.5975 4.87654 63.9357 7.11448 52.6848C9.35243 41.4339 14.8764 31.0993 22.9878 22.9878C31.0993 14.8764 41.4339 9.3524 52.6848 7.11445C63.9357 4.87651 75.5976 6.0251 86.1957 10.415C96.7938 14.8049 105.852 22.2389 112.225 31.7769C118.598 41.315 122 52.5287 122 64C121.982 79.3769 115.865 94.1186 104.992 104.992C94.1187 115.865 79.3769 121.981 64 122Z" fill="#14213D"/>
<path d="M92.12 35.79C91.5575 35.2282 90.795 34.9126 90 34.9126C89.205 34.9126 88.4425 35.2282 87.88 35.79L64 59.75L40.13 35.75C39.5664 35.1864 38.802 34.8698 38.005 34.8698C37.2079 34.8698 36.4435 35.1864 35.88 35.75C35.3164 36.3135 34.9998 37.0779 34.9998 37.875C34.9998 38.672 35.3164 39.4364 35.88 40L59.76 64L35.88 88C35.3177 88.5635 35.0024 89.3274 35.0033 90.1235C35.0042 90.9196 35.3214 91.6827 35.885 92.245C36.4485 92.8072 37.2124 93.1226 38.0085 93.1216C38.8046 93.1207 39.5677 92.8035 40.13 92.24L64 68.25L87.88 92.25C88.4435 92.8135 89.2079 93.1302 90.005 93.1302C90.802 93.1302 91.5664 92.8135 92.13 92.25C92.6935 91.6864 93.0102 90.922 93.0102 90.125C93.0102 89.3279 92.6935 88.5635 92.13 88L68.24 64L92.13 40C92.6813 39.4374 92.9893 38.6806 92.9874 37.8929C92.9856 37.1052 92.674 36.3499 92.12 35.79Z" fill="#14213D"/>
</g>
<defs>
<clipPath id="clip0_65_180">
<rect width="128" height="128" fill="white"/>
</clipPath>
</defs>
</svg>
