<svg width="83" height="79" viewBox="0 0 83 79" fill="none" xmlns="http://www.w3.org/2000/svg">
<path d="M61.7637 26.9467H21.2363C19.4531 26.9467 17.9941 25.4877 17.9941 23.7045C17.9941 21.9213 19.4531 20.4623 21.2363 20.4623H61.7637C63.5469 20.4623 65.0059 21.9213 65.0059 23.7045C65.0059 25.4877 63.5469 26.9467 61.7637 26.9467Z" fill="#14213D"/>
<path d="M61.7637 54.5377H21.2363C19.4531 54.5377 17.9941 53.0787 17.9941 51.2955C17.9941 49.5123 19.4531 48.0533 21.2363 48.0533H61.7637C63.5469 48.0533 65.0059 49.5123 65.0059 51.2955C65.0059 53.0787 63.5469 54.5377 61.7637 54.5377Z" fill="#14213D"/>
<path d="M61.7637 40.7422H21.2363C19.4531 40.7422 17.9941 39.2832 17.9941 37.5C17.9941 35.7168 19.4531 34.2578 21.2363 34.2578H61.7637C63.5469 34.2578 65.0059 35.7168 65.0059 37.5C65.0059 39.2832 63.5469 40.7422 61.7637 40.7422Z" fill="#14213D"/>
</svg>
