<svg width="135" height="132" viewBox="0 0 135 132" fill="none" xmlns="http://www.w3.org/2000/svg">
<g clip-path="url(#clip0_71_204)">
<path d="M82.523 0C111.498 0 134.992 22.9719 134.992 51.3035C134.992 79.6352 111.498 102.607 82.5228 102.607C71.3806 102.607 61.0473 99.209 52.5534 93.4207L52.5472 93.4147L13.6335 131.464C12.9113 132.17 11.7631 132.188 11.0223 131.464L0.534443 121.209C-0.187669 120.503 -0.150625 119.332 0.540609 118.656L39.4486 80.613C33.5288 72.3017 30.0535 62.1979 30.0535 51.3035C30.0535 22.9719 53.5474 0 82.523 0ZM82.523 90.5356C104.684 90.5356 122.647 72.9718 122.647 51.3035C122.647 29.6353 104.683 12.0715 82.523 12.0715C60.3625 12.0715 42.3993 29.6353 42.3993 51.3035C42.3993 72.9718 60.3623 90.5356 82.523 90.5356Z" fill="#14213D"/>
</g>
<defs>
<clipPath id="clip0_71_204">
<rect width="135" height="132" fill="white" transform="matrix(-1 0 0 1 135 0)"/>
</clipPath>
</defs>
</svg>
